<?xml version="1.0" encoding="UTF-8" standalone="no" ?>
<!DOCTYPE svg PUBLIC "-//W3C//DTD SVG 1.1//EN" "http://www.w3.org/Graphics/SVG/1.1/DTD/svg11.dtd">
<svg xmlns="http://www.w3.org/2000/svg" xmlns:xlink="http://www.w3.org/1999/xlink" version="1.1" width="1400" height="300" viewBox="0 0 1400 300" xml:space="preserve">
<desc>Created with Fabric.js 4.6.0</desc>
<defs>
</defs>
<g transform="matrix(0.97 0 0 1 286 150)" id="eKYcipmXCoGhGYeOzaFzB"  >
<path style="stroke: rgb(20,97,39); stroke-width: 0; stroke-dasharray: none; stroke-linecap: butt; stroke-dashoffset: 0; stroke-linejoin: miter; stroke-miterlimit: 4; fill: rgb(82,101,225); fill-rule: nonzero; opacity: 1;" vector-effect="non-scaling-stroke"  transform=" translate(0, 0)" d="M -160 -130 L 160 -130 L 160 130 L -160 130 z" stroke-linecap="round" />
</g>
<g transform="matrix(1 0 0 1 130.4 150)" id="BBo-7pFA_pqG9-9_93kvs"  >
<path style="stroke: rgb(80,131,174); stroke-width: 0; stroke-dasharray: none; stroke-linecap: butt; stroke-dashoffset: 0; stroke-linejoin: miter; stroke-miterlimit: 4; fill: rgb(82,101,225); fill-rule: nonzero; opacity: 1;" vector-effect="non-scaling-stroke"  transform=" translate(-130, -130)" d="M 130 0 C 201.76 0 260 58.24 260 130 C 260 201.76 201.76 260 130 260 C 58.239999999999995 260 0 201.76 0 130 C 0 58.239999999999995 58.24 0 130 0 z" stroke-linecap="round" />
</g>
<g transform="matrix(1 0 0 1 441.6 150)" id="syTztuF_MFxfNDhcuyUkx"  >
<path style="stroke: rgb(80,131,174); stroke-width: 0; stroke-dasharray: none; stroke-linecap: butt; stroke-dashoffset: 0; stroke-linejoin: miter; stroke-miterlimit: 4; fill: rgb(82,101,225); fill-rule: nonzero; opacity: 1;" vector-effect="non-scaling-stroke"  transform=" translate(-130, -130)" d="M 130 0 C 201.76 0 260 58.24 260 130 C 260 201.76 201.76 260 130 260 C 58.239999999999995 260 0 201.76 0 130 C 0 58.239999999999995 58.24 0 130 0 z" stroke-linecap="round" />
</g>
</svg>